# xmcd
# 
# Track frame offsets:
#     182
#     19427
#     43037
#     67365
#     95750
#     111005
#     132772
#     147745
#     172492
#     195170
# 
# Disc length: 2841
# 
# Revision: 29
# Processed by: cddbd v1.5.2PL0 Copyright (c) Steve Scherf et al.
# Submitted via: fre:ac v1.0.31
# 
DISCID=9f0b170a
DTITLE=Bad Company - 10 From 6
DYEAR=1985
DGENRE=Rock/Pop
TTITLE0=Can't Get Enough
TTITLE1=Feel Like Makin' Love
TTITLE2=Run With The Pack
TTITLE3=Shooting Star
TTITLE4=Movin' On
TTITLE5=Bad Company
TTITLE6=Rock 'N' Roll Fantasy
TTITLE7=Electric Land
TTITLE8=Ready For Love
TTITLE9=Live For The Music
EXTD=
EXTT0=
EXTT1=
EXTT2=
EXTT3=
EXTT4=
EXTT5=
EXTT6=
EXTT7=
EXTT8=
EXTT9=
PLAYORDER=
